<svg
  width="450"
  height="456"
  viewBox="0 0 450 456"
  fill="none"
  xmlns="http://www.w3.org/2000/svg"
  role="img"
  aria-label="GitHub stats and most used languages"
>
  <defs>
    <linearGradient id="unified-card-bg" gradientTransform="rotate(30)" gradientUnits="userSpaceOnUse">
      <stop offset="0%" stop-color="#e96443" />
      <stop offset="100%" stop-color="#904e95" />
    </linearGradient>
  </defs>
  <rect x="0.5" y="0.5" rx="4.5" width="449" height="455" fill="url(#unified-card-bg)" stroke="#e4e2e2" stroke-opacity="1.0" />
  <svg x="0" y="0" width="450" height="195" viewBox="0 0 450 195">
        <title id="titleId"></title>
        <desc id="descId"></desc>
        <style>
          .header {
            font: 600 18px 'Segoe UI', Ubuntu, "Helvetica Neue", Sans-Serif;
            fill: #fff;
            animation: fadeInAnimation 0.8s ease-in-out forwards;
          }
          @supports(-moz-appearance: auto) {
            /* Selector detects Firefox */
            .header { font-size: 15.5px; }
          }
          
    .stat {
      font: 600 14px 'Segoe UI', Ubuntu, "Helvetica Neue", Sans-Serif; fill: #fff;
    }
    @supports(-moz-appearance: auto) {
      /* Selector detects Firefox */
      .stat { font-size:12px; }
    }
    .stagger {
      opacity: 0;
      animation: fadeInAnimation 0.3s ease-in-out forwards;
    }
    .rank-text {
      font: 800 24px 'Segoe UI', Ubuntu, Sans-Serif; fill: #fff;
      animation: scaleInAnimation 0.3s ease-in-out forwards;
    }
    .rank-percentile-header {
      font-size: 14px;
    }
    .rank-percentile-text {
      font-size: 16px;
    }
    
    .not_bold { font-weight: 400 }
    .bold { font-weight: 700 }
    .icon {
      fill: #4c71f2;
      display: none;
    }

    .rank-circle-rim {
      stroke: #fff;
      fill: none;
      stroke-width: 6;
      opacity: 0.2;
    }
    .rank-circle {
      stroke: #fff;
      stroke-dasharray: 250;
      fill: none;
      stroke-width: 6;
      stroke-linecap: round;
      opacity: 0.8;
      transform-origin: -10px 8px;
      transform: rotate(-90deg);
      animation: rankAnimation 1s forwards ease-in-out;
      filter: drop-shadow(0 2px 4px rgba(0,0,0,0.1));
    }
    .rank-circle-rim {
      filter: drop-shadow(0 1px 2px rgba(0,0,0,0.1));
    }
    
    @keyframes rankAnimation {
      from {
        stroke-dashoffset: 251.33;
      }
      to {
        stroke-dashoffset: 137.92;
      }
    }
  
  

          
      /* Animations */
      @keyframes scaleInAnimation {
        from {
          transform: translate(-5px, 5px) scale(0);
        }
        to {
          transform: translate(-5px, 5px) scale(1);
        }
      }
      @keyframes fadeInAnimation {
        from {
          opacity: 0;
        }
        to {
          opacity: 1;
        }
      }
      @keyframes slideInAnimation {
        from {
          transform: translateX(-10px);
          opacity: 0;
        }
        to {
          transform: translateX(0);
          opacity: 1;
        }
      }
      @keyframes bounceInAnimation {
        0% {
          transform: scale(0.3);
          opacity: 0;
        }
        50% {
          transform: scale(1.05);
        }
        70% {
          transform: scale(0.9);
        }
        100% {
          transform: scale(1);
          opacity: 1;
        }
      }
    
          
        </style>

        
        
        

        

        
      <g
        data-testid="card-title"
        transform="translate(25, 35)"
      >
        <g transform="translate(0, 0)">
      <text
        x="0"
        y="0"
        class="header"
        data-testid="header"
      >Alfonso L&#243;pez Ruiz's GitHub Stats</text>
    </g>
      </g>
    

        <g
          data-testid="main-card-body"
          transform="translate(0, 55)"
        >
          
    
      <g data-testid="rank-circle" transform="translate(365, 48)">
        <circle class="rank-circle-rim" cx="-10" cy="8" r="40" />
        <circle class="rank-circle" cx="-10" cy="8" r="40" />
        <g class="rank-text">
          
        <svg x="-38" y="-30" height="66" width="66" aria-hidden="true" viewBox="0 0 16 16" version="1.1" data-view-component="true" data-testid="github-rank-icon">
          <path d="M8 0c4.42 0 8 3.58 8 8a8.013 8.013 0 0 1-5.45 7.59c-.4.08-.55-.17-.55-.38 0-.27.01-1.13.01-2.2 0-.75-.25-1.23-.54-1.48 1.78-.2 3.65-.88 3.65-3.95 0-.88-.31-1.59-.82-2.15.08-.2.36-1.02-.08-2.12 0 0-.67-.22-2.2.82-.64-.18-1.32-.27-2-.27-.68 0-1.36.09-2 .27-1.53-1.03-2.2-.82-2.2-.82-.44 1.1-.16 1.92-.08 2.12-.51.56-.82 1.28-.82 2.15 0 3.06 1.86 3.75 3.64 3.95-.23.2-.44.55-.51 1.07-.46.21-1.61.55-2.33-.66-.15-.24-.6-.83-1.23-.82-.67.01-.27.38.01.53.34.19.73.9.82 1.13.16.45.68 1.31 2.69.94 0 .67.01 1.3.01 1.49 0 .21-.15.45-.55.38A7.995 7.995 0 0 1 0 8c0-4.42 3.58-8 8-8Z"></path>
        </svg>
      
        </g>
      </g>
    <svg x="0" y="0">
      <g transform="translate(0, 0)">
    <g class="stagger" style="animation-delay: 450ms" transform="translate(25, 0)">
      
      <text class="stat not_bold"  y="12.5">Total Stars:</text>
      <text
        class="stat not_bold"
        x="199.01"
        y="12.5"
        data-testid="stars"
      >184</text>
    </g>
  </g><g transform="translate(0, 25)">
    <g class="stagger" style="animation-delay: 600ms" transform="translate(25, 0)">
      
      <text class="stat not_bold"  y="12.5">Commits (this year):</text>
      <text
        class="stat not_bold"
        x="199.01"
        y="12.5"
        data-testid="commits"
      >219</text>
    </g>
  </g><g transform="translate(0, 50)">
    <g class="stagger" style="animation-delay: 750ms" transform="translate(25, 0)">
      
      <text class="stat not_bold"  y="12.5">PRs:</text>
      <text
        class="stat not_bold"
        x="199.01"
        y="12.5"
        data-testid="prs"
      >15</text>
    </g>
  </g><g transform="translate(0, 75)">
    <g class="stagger" style="animation-delay: 900ms" transform="translate(25, 0)">
      
      <text class="stat not_bold"  y="12.5">Issues:</text>
      <text
        class="stat not_bold"
        x="199.01"
        y="12.5"
        data-testid="issues"
      >0</text>
    </g>
  </g><g transform="translate(0, 100)">
    <g class="stagger" style="animation-delay: 1050ms" transform="translate(25, 0)">
      
      <text class="stat not_bold"  y="12.5">Contributed to:</text>
      <text
        class="stat not_bold"
        x="199.01"
        y="12.5"
        data-testid="contribs"
      >5</text>
    </g>
  </g>
    </svg>
  
        </g>
      </svg>
  <svg x="75" y="171" width="300" height="285" viewBox="0 0 300 285">
        <title id="titleId"></title>
        <desc id="descId"></desc>
        <style>
          .header {
            font: 600 18px 'Segoe UI', Ubuntu, "Helvetica Neue", Sans-Serif;
            fill: #fff;
            animation: fadeInAnimation 0.8s ease-in-out forwards;
          }
          @supports(-moz-appearance: auto) {
            /* Selector detects Firefox */
            .header { font-size: 15.5px; }
          }
          
    .lang-name {
      font: 400 11px 'Segoe UI', Ubuntu, Sans-Serif; fill: #fff;
    }
    .stagger {
      opacity: 0;
      animation: fadeInAnimation 0.3s ease-in-out forwards;
    }
    .lang-progress {
      animation: growWidthAnimation 0.6s ease-in-out forwards;
    }
    #rect-mask rect {
      animation: slideInAnimation 1s ease-in-out forwards;
    }
    @keyframes progressAnimation {
      from {
        width: 0;
      }
    }
    @keyframes slideInAnimation {
      from {
        width: 0;
      }
      to {
        width: calc(100%-100px);
      }
    }
    @keyframes growWidthAnimation {
      from {
        width: 0;
      }
      to {
        width: 100%;
      }
    }
    @keyframes fadeInAnimation {
      from {
        opacity: 0;
      }
      to {
        opacity: 1;
      }
    }
  

          
      /* Animations */
      @keyframes scaleInAnimation {
        from {
          transform: translate(-5px, 5px) scale(0);
        }
        to {
          transform: translate(-5px, 5px) scale(1);
        }
      }
      @keyframes fadeInAnimation {
        from {
          opacity: 0;
        }
        to {
          opacity: 1;
        }
      }
      @keyframes slideInAnimation {
        from {
          transform: translateX(-10px);
          opacity: 0;
        }
        to {
          transform: translateX(0);
          opacity: 1;
        }
      }
      @keyframes bounceInAnimation {
        0% {
          transform: scale(0.3);
          opacity: 0;
        }
        50% {
          transform: scale(1.05);
        }
        70% {
          transform: scale(0.9);
        }
        100% {
          transform: scale(1);
          opacity: 1;
        }
      }
    
          
        </style>

        
        
        

        

        
      <g
        data-testid="card-title"
        transform="translate(25, 35)"
      >
        <g transform="translate(0, 0)">
      <text
        x="0"
        y="0"
        class="header"
        data-testid="header"
      >Most Used Languages</text>
    </g>
      </g>
    

        <g
          data-testid="main-card-body"
          transform="translate(0, 55)"
        >
          
    <svg data-testid="lang-items" x="25">
      <g transform="translate(0, 0)">
      <g class="stagger" style="animation-delay: 450ms">
        <text data-testid="lang-name" x="2" y="15" class="lang-name">C++</text>
        <text x="215" y="34" class="lang-name" data-testid="lang-name">62.1%</text>
        
    <svg width="205" x="0" y="25">
      <rect rx="5" ry="5" x="0" y="0" width="205" height="8" fill="#ddd"></rect>
      <svg data-testid="lang-progress" width="62.07%">
        <rect
            height="8"
            fill="#f34b7d"
            rx="5" ry="5" x="0" y="0"
            class="lang-progress"
            style="animation-delay: 750ms;"
        />
      </svg>
    </svg>
  
      </g>
    </g><g transform="translate(0, 40)">
      <g class="stagger" style="animation-delay: 600ms">
        <text data-testid="lang-name" x="2" y="15" class="lang-name">Jupyter Notebook</text>
        <text x="215" y="34" class="lang-name" data-testid="lang-name">18.2%</text>
        
    <svg width="205" x="0" y="25">
      <rect rx="5" ry="5" x="0" y="0" width="205" height="8" fill="#ddd"></rect>
      <svg data-testid="lang-progress" width="18.24%">
        <rect
            height="8"
            fill="#DA5B0B"
            rx="5" ry="5" x="0" y="0"
            class="lang-progress"
            style="animation-delay: 900ms;"
        />
      </svg>
    </svg>
  
      </g>
    </g><g transform="translate(0, 80)">
      <g class="stagger" style="animation-delay: 750ms">
        <text data-testid="lang-name" x="2" y="15" class="lang-name">C</text>
        <text x="215" y="34" class="lang-name" data-testid="lang-name">13.2%</text>
        
    <svg width="205" x="0" y="25">
      <rect rx="5" ry="5" x="0" y="0" width="205" height="8" fill="#ddd"></rect>
      <svg data-testid="lang-progress" width="13.19%">
        <rect
            height="8"
            fill="#555555"
            rx="5" ry="5" x="0" y="0"
            class="lang-progress"
            style="animation-delay: 1050ms;"
        />
      </svg>
    </svg>
  
      </g>
    </g><g transform="translate(0, 120)">
      <g class="stagger" style="animation-delay: 900ms">
        <text data-testid="lang-name" x="2" y="15" class="lang-name">TeX</text>
        <text x="215" y="34" class="lang-name" data-testid="lang-name">5.3%</text>
        
    <svg width="205" x="0" y="25">
      <rect rx="5" ry="5" x="0" y="0" width="205" height="8" fill="#ddd"></rect>
      <svg data-testid="lang-progress" width="5.27%">
        <rect
            height="8"
            fill="#3D6117"
            rx="5" ry="5" x="0" y="0"
            class="lang-progress"
            style="animation-delay: 1200ms;"
        />
      </svg>
    </svg>
  
      </g>
    </g><g transform="translate(0, 160)">
      <g class="stagger" style="animation-delay: 1050ms">
        <text data-testid="lang-name" x="2" y="15" class="lang-name">GLSL</text>
        <text x="215" y="34" class="lang-name" data-testid="lang-name">1.2%</text>
        
    <svg width="205" x="0" y="25">
      <rect rx="5" ry="5" x="0" y="0" width="205" height="8" fill="#ddd"></rect>
      <svg data-testid="lang-progress" width="2.00%">
        <rect
            height="8"
            fill="#5686a5"
            rx="5" ry="5" x="0" y="0"
            class="lang-progress"
            style="animation-delay: 1350ms;"
        />
      </svg>
    </svg>
  
      </g>
    </g>
    </svg>
  
        </g>
      </svg>
</svg>
