<svg version="1.1" xmlns="http://www.w3.org/2000/svg" xmlns:xlink="http://www.w3.org/1999/xlink" style="" xml:space="preserve" width="115.20692491531372" height="79.10344874858856"><rect id="backgroundrect" width="100%" height="100%" x="0" y="0" fill="none" stroke="none" style="" class=""/>
<style type="text/css">
	.st0{fill:#221F20;}
	.st1{fill:url(#SVGID_1_);}
	.st2{fill:url(#SVGID_2_);}
	.st3{fill:url(#SVGID_3_);}
	.st4{fill:url(#SVGID_4_);}
</style>
<title>Cabecera-Logo-en</title>


<g class="currentLayer" style=""><title>Layer 1</title><g id="svg_1">
	<path class="st0" d="M145.4,16h2.8v5.3c-0.7,0.6-1.6,1-2.5,1.2c-0.9,0.3-1.9,0.4-2.8,0.4c-1.3,0-2.5-0.3-3.7-0.9   c-1.1-0.6-1.9-1.4-2.6-2.4c-1.2-2.2-1.2-4.8,0-7c0.6-1,1.5-1.9,2.6-2.4c1.1-0.6,2.4-0.9,3.7-0.9c1.1,0,2.1,0.2,3.1,0.6   c0.9,0.4,1.7,0.9,2.4,1.7l-1.9,1.8c-0.9-1-2.1-1.5-3.4-1.5c-0.8,0-1.5,0.2-2.2,0.5c-0.6,0.3-1.2,0.8-1.5,1.5c-0.7,1.4-0.7,3,0,4.4   c0.4,0.6,0.9,1.1,1.5,1.5c0.7,0.4,1.4,0.5,2.2,0.5c0.8,0,1.6-0.2,2.4-0.6L145.4,16z" id="svg_2"/>
	<path class="st0" d="M155,12.9c0.7-0.3,1.3-0.4,2-0.4v2.7c-0.3,0-0.5,0-0.7,0c-0.7,0-1.4,0.2-2,0.7c-0.5,0.6-0.8,1.3-0.7,2.1v4.8   h-2.9V12.7h2.8V14C153.9,13.5,154.4,13.1,155,12.9z" id="svg_3"/>
	<path class="st0" d="M166.3,13.6c0.9,0.9,1.3,2.1,1.3,3.4v5.7h-2.7v-1.3c-0.7,1-1.9,1.5-3.1,1.4c-0.7,0-1.4-0.1-2-0.4   c-0.5-0.2-1-0.6-1.3-1.1c-0.3-0.5-0.5-1-0.4-1.6c0-0.9,0.4-1.7,1.1-2.2c1-0.6,2.1-0.9,3.3-0.8h2.3c0-0.6-0.2-1.1-0.6-1.5   c-0.5-0.4-1.1-0.6-1.7-0.5c-0.5,0-1.1,0.1-1.6,0.3c-0.5,0.1-0.9,0.4-1.3,0.7l-1-2c0.6-0.4,1.3-0.7,2-0.9c0.8-0.2,1.6-0.3,2.4-0.3   C164,12.4,165.3,12.8,166.3,13.6z M163.8,20.6c0.4-0.2,0.7-0.6,0.8-1v-1h-2c-1.2,0-1.8,0.4-1.8,1.2c0,0.4,0.2,0.7,0.4,0.9   c0.4,0.2,0.8,0.4,1.2,0.3C163,20.9,163.4,20.8,163.8,20.6z" id="svg_4"/>
	<path class="st0" d="M178.7,13.2c0.8,0.4,1.4,1.1,1.8,1.8c0.9,1.7,0.9,3.7,0,5.4c-0.4,0.8-1,1.4-1.8,1.8c-0.8,0.4-1.7,0.7-2.6,0.6   c-1.1,0.1-2.2-0.4-3-1.2v4.7h-2.9V12.7h2.8v1.2c0.8-0.9,2-1.4,3.2-1.3C177.1,12.5,177.9,12.7,178.7,13.2z M177.5,19.7   c0.5-0.6,0.8-1.3,0.7-2c0-0.7-0.2-1.5-0.7-2c-1-1-2.7-1-3.7,0c-0.5,0.6-0.8,1.3-0.7,2c0,0.7,0.2,1.5,0.7,2   C174.8,20.7,176.5,20.7,177.5,19.7z" id="svg_5"/>
	<path class="st0" d="M192.3,13.6c0.8,0.9,1.2,2.1,1.1,3.3v5.8h-2.9v-5.3c0-0.6-0.1-1.3-0.5-1.8c-0.4-0.4-0.9-0.6-1.5-0.6   c-0.7,0-1.3,0.2-1.8,0.7c-0.5,0.6-0.7,1.3-0.7,2v5h-2.9V8.9h2.9v4.9c0.4-0.4,0.9-0.7,1.4-0.9c0.6-0.2,1.2-0.3,1.8-0.3   C190.4,12.5,191.4,12.9,192.3,13.6z" id="svg_6"/>
	<path class="st0" d="M196.2,10.8c-0.6-0.6-0.7-1.6-0.1-2.2c0,0,0.1-0.1,0.1-0.1c0.4-0.3,0.8-0.5,1.3-0.5c0.5,0,0.9,0.1,1.3,0.4   c0.3,0.3,0.5,0.7,0.5,1.1c0,0.5-0.2,0.9-0.5,1.2c-0.4,0.3-0.8,0.5-1.3,0.5C197,11.3,196.6,11.1,196.2,10.8z M196,12.7h2.9v10.1H196   V12.7z" id="svg_7"/>
	<path class="st0" d="M203.6,22.2c-0.8-0.4-1.5-1.1-2-1.8c-1.5-2.4-0.7-5.5,1.6-7c0.1-0.1,0.2-0.1,0.4-0.2c0.9-0.5,1.9-0.7,2.9-0.7   c1,0,1.9,0.2,2.8,0.7c0.8,0.4,1.4,1.1,1.7,1.9l-2.3,1.2c-0.4-0.9-1.3-1.4-2.3-1.4c-0.7,0-1.4,0.2-1.9,0.7c-0.5,0.5-0.8,1.3-0.7,2   c0,0.8,0.2,1.5,0.7,2c0.5,0.5,1.2,0.8,1.9,0.7c1,0,1.8-0.5,2.3-1.4l2.3,1.2c-0.4,0.8-1,1.5-1.7,1.9c-0.9,0.5-1.8,0.7-2.8,0.7   C205.5,22.9,204.5,22.7,203.6,22.2z" id="svg_8"/>
	<path class="st0" d="M213.7,22.6c-0.7-0.2-1.3-0.4-1.9-0.8l1-2.1c0.5,0.3,1.1,0.5,1.6,0.7c0.6,0.2,1.2,0.3,1.9,0.3   c1.2,0,1.9-0.3,1.9-0.9c0-0.3-0.2-0.6-0.5-0.6c-0.5-0.2-1-0.3-1.6-0.3c-0.7-0.1-1.4-0.2-2-0.4c-0.5-0.2-1-0.5-1.4-0.9   c-0.4-0.5-0.6-1.1-0.6-1.8c0-0.6,0.2-1.2,0.6-1.7c0.4-0.5,1-0.9,1.6-1.1c0.8-0.3,1.6-0.4,2.5-0.4c0.7,0,1.4,0.1,2.1,0.2   c0.6,0.1,1.2,0.3,1.7,0.6l-1,2.1c-0.9-0.5-1.9-0.8-2.9-0.7c-0.5,0-1,0.1-1.4,0.3c-0.3,0.1-0.5,0.4-0.5,0.7c0,0.3,0.2,0.6,0.5,0.7   c0.5,0.2,1.1,0.3,1.6,0.4c0.7,0.1,1.4,0.3,2,0.4c0.5,0.2,1,0.4,1.4,0.9c0.4,0.5,0.6,1.1,0.6,1.7c0,0.6-0.2,1.2-0.6,1.7   c-0.4,0.5-1,0.9-1.6,1.1c-0.8,0.3-1.7,0.4-2.6,0.4C215.3,22.9,214.5,22.8,213.7,22.6z" id="svg_9"/>
	<path class="st0" d="M235.6,13.6c0.9,0.9,1.3,2.1,1.3,3.4v5.7h-2.7v-1.3c-0.7,1-1.9,1.5-3.1,1.4c-0.7,0-1.4-0.1-2-0.4   c-0.5-0.2-1-0.6-1.3-1.1c-0.3-0.5-0.5-1-0.4-1.6c0-0.9,0.4-1.7,1.1-2.2c1-0.6,2.1-0.9,3.3-0.8h2.3c0-0.6-0.2-1.1-0.6-1.5   c-0.5-0.4-1.1-0.6-1.7-0.5c-0.5,0-1.1,0.1-1.6,0.3c-0.5,0.1-0.9,0.4-1.3,0.7l-1-2c0.6-0.4,1.3-0.7,2-0.9c0.8-0.2,1.6-0.3,2.4-0.3   C233.3,12.4,234.6,12.8,235.6,13.6z M233.1,20.6c0.4-0.2,0.7-0.6,0.8-1v-1h-2c-1.2,0-1.8,0.4-1.8,1.2c0,0.4,0.2,0.7,0.4,0.9   c0.4,0.2,0.8,0.4,1.2,0.3C232.2,20.9,232.7,20.8,233.1,20.6L233.1,20.6z" id="svg_10"/>
	<path class="st0" d="M248.6,13.6c0.8,0.9,1.2,2.1,1.1,3.3v5.8h-2.9v-5.3c0-0.6-0.1-1.3-0.5-1.8c-0.4-0.4-0.9-0.6-1.5-0.6   c-0.7,0-1.3,0.2-1.8,0.7c-0.5,0.6-0.7,1.3-0.7,2v5h-2.9V12.7h2.8v1.2c0.4-0.4,0.9-0.8,1.4-1c0.6-0.2,1.2-0.4,1.9-0.3   C246.7,12.5,247.8,12.9,248.6,13.6z" id="svg_11"/>
	<path class="st0" d="M262.8,8.9v13.9H260v-1.2c-0.8,0.9-1.9,1.4-3.1,1.3c-0.9,0-1.8-0.2-2.6-0.6c-0.8-0.4-1.4-1-1.8-1.8   c-0.9-1.7-0.9-3.7,0-5.5c0.4-0.8,1-1.4,1.8-1.8c0.8-0.4,1.7-0.6,2.6-0.6c1.1-0.1,2.2,0.4,3,1.2V8.9H262.8z M259.2,19.7   c0.5-0.6,0.8-1.3,0.7-2c0-0.7-0.2-1.5-0.7-2c-1-1-2.7-1-3.7,0c-0.5,0.6-0.8,1.3-0.7,2c0,0.7,0.2,1.5,0.7,2   C256.5,20.7,258.2,20.7,259.2,19.7z" id="svg_12"/>
	<path class="st0" d="M279.8,16h2.8v5.3c-0.7,0.6-1.6,1-2.5,1.2c-0.9,0.3-1.9,0.4-2.8,0.4c-1.3,0-2.5-0.3-3.7-0.9   c-1.1-0.6-1.9-1.4-2.6-2.4c-1.2-2.2-1.2-4.8,0-7c0.6-1,1.5-1.9,2.6-2.4c1.1-0.6,2.4-0.9,3.7-0.9c1.1,0,2.1,0.2,3.1,0.6   c0.9,0.4,1.7,0.9,2.4,1.7l-1.9,1.8c-0.9-1-2.1-1.5-3.4-1.5c-0.8,0-1.5,0.2-2.2,0.5c-0.6,0.3-1.2,0.8-1.5,1.5c-0.7,1.4-0.7,3,0,4.4   c0.4,0.6,0.9,1.1,1.5,1.5c0.7,0.4,1.4,0.5,2.2,0.5c0.8,0,1.6-0.2,2.4-0.6L279.8,16z" id="svg_13"/>
	<path class="st0" d="M295,18.5h-7.6c0.1,0.6,0.5,1.1,1,1.5c0.6,0.4,1.2,0.6,1.9,0.5c0.5,0,0.9-0.1,1.4-0.2c0.4-0.2,0.8-0.4,1.1-0.7   l1.6,1.7c-1.1,1.1-2.6,1.7-4.2,1.6c-1,0-2.1-0.2-3-0.7c-0.8-0.4-1.5-1-2-1.8c-0.5-0.8-0.7-1.7-0.7-2.7c0-0.9,0.2-1.9,0.7-2.7   c0.5-0.8,1.1-1.4,1.9-1.9c1.7-0.9,3.7-0.9,5.4,0c0.8,0.4,1.4,1,1.9,1.8c0.5,0.8,0.7,1.8,0.7,2.8C295,17.8,295,18,295,18.5z    M288.1,15.3c-0.5,0.4-0.8,0.9-0.8,1.5h5c-0.1-0.6-0.4-1.1-0.8-1.5c-0.5-0.4-1-0.6-1.6-0.6C289.2,14.7,288.6,14.9,288.1,15.3z" id="svg_14"/>
	<path class="st0" d="M298.9,22.2c-0.8-0.4-1.5-1.1-2-1.8c-0.9-1.7-0.9-3.7,0-5.3c0.5-0.8,1.2-1.4,2-1.8c1.8-0.9,3.9-0.9,5.7,0   c0.8,0.4,1.5,1.1,2,1.8c0.9,1.7,0.9,3.7,0,5.3c-0.5,0.8-1.2,1.4-2,1.8C302.8,23.1,300.7,23.1,298.9,22.2z M303.6,19.7   c0.5-0.6,0.8-1.3,0.7-2c0-0.7-0.2-1.5-0.7-2c-0.5-0.5-1.1-0.8-1.8-0.8c-0.7,0-1.4,0.3-1.9,0.8c-0.5,0.6-0.8,1.3-0.7,2   c0,0.7,0.2,1.5,0.7,2c0.5,0.5,1.2,0.8,1.9,0.8C302.5,20.5,303.1,20.2,303.6,19.7z" id="svg_15"/>
	<path class="st0" d="M325.1,13.6c0.8,0.9,1.2,2.1,1.1,3.3v5.8h-2.9v-5.3c0-0.6-0.1-1.3-0.5-1.8c-0.4-0.4-0.9-0.6-1.4-0.6   c-0.6,0-1.2,0.2-1.6,0.7c-0.4,0.6-0.7,1.3-0.6,2v5h-2.9v-5.3c0-1.6-0.6-2.4-1.9-2.4c-0.6,0-1.2,0.2-1.6,0.7c-0.4,0.6-0.7,1.3-0.6,2   v5h-2.9V12.7h2.8v1.2c0.4-0.4,0.8-0.8,1.4-1c0.6-0.2,1.2-0.3,1.8-0.3c0.7,0,1.3,0.1,1.9,0.4c0.6,0.3,1,0.7,1.4,1.2   c0.4-0.5,1-0.9,1.6-1.2c0.6-0.3,1.4-0.4,2.1-0.4C323.2,12.5,324.3,12.9,325.1,13.6z" id="svg_16"/>
	<path class="st0" d="M336.5,13.6c0.9,0.9,1.3,2.1,1.3,3.4v5.7H335v-1.3c-0.7,1-1.9,1.5-3.1,1.4c-0.7,0-1.4-0.1-2-0.4   c-0.5-0.2-1-0.6-1.3-1.1c-0.3-0.5-0.5-1-0.4-1.6c0-0.9,0.4-1.7,1.1-2.2c1-0.6,2.1-0.9,3.3-0.8h2.3c0-0.6-0.2-1.1-0.6-1.5   c-0.5-0.4-1.1-0.6-1.7-0.5c-0.5,0-1.1,0.1-1.6,0.3c-0.5,0.1-0.9,0.4-1.3,0.7l-1-2c0.6-0.4,1.3-0.7,2-0.9c0.8-0.2,1.6-0.3,2.4-0.3   C334.2,12.4,335.5,12.8,336.5,13.6z M334,20.6c0.4-0.2,0.7-0.6,0.8-1v-1h-2c-1.2,0-1.8,0.4-1.8,1.2c0,0.4,0.2,0.7,0.4,0.9   c0.4,0.2,0.8,0.4,1.2,0.3C333.1,20.9,333.6,20.8,334,20.6z" id="svg_17"/>
	<path class="st0" d="M346.9,22.2c-0.3,0.2-0.7,0.4-1.1,0.5c-0.4,0.1-0.9,0.2-1.3,0.2c-1,0.1-2-0.3-2.8-0.9c-0.7-0.7-1.1-1.7-1-2.7   v-4.1h-1.6v-2.2h1.6v-2.4h2.9v2.4h2.5v2.2h-2.5v4.1c0,0.4,0.1,0.7,0.3,1c0.2,0.2,0.6,0.4,0.9,0.3c0.4,0,0.8-0.1,1.2-0.4L346.9,22.2   z" id="svg_18"/>
	<path class="st0" d="M348.7,10.8c-0.6-0.6-0.7-1.6-0.1-2.2c0,0,0.1-0.1,0.1-0.1C349,8.2,349.5,8,350,8c0.5,0,0.9,0.1,1.3,0.4   c0.3,0.3,0.5,0.7,0.5,1.1c0,0.5-0.2,0.9-0.5,1.2c-0.4,0.3-0.8,0.5-1.3,0.5C349.5,11.3,349,11.1,348.7,10.8z M348.5,12.7h2.9v10.1   h-2.9V12.7z" id="svg_19"/>
	<path class="st0" d="M356.1,22.2c-0.8-0.4-1.5-1.1-2-1.8c-1.5-2.4-0.7-5.5,1.6-7c0.1-0.1,0.2-0.1,0.4-0.2c0.9-0.5,1.9-0.7,2.9-0.7   c1,0,1.9,0.2,2.8,0.7c0.8,0.4,1.4,1.1,1.7,1.9l-2.3,1.2c-0.4-0.9-1.3-1.4-2.3-1.4c-0.7,0-1.4,0.2-1.9,0.7c-0.5,0.5-0.8,1.3-0.7,2   c0,0.8,0.2,1.5,0.7,2c0.5,0.5,1.2,0.8,1.9,0.7c1,0,1.8-0.5,2.3-1.4l2.3,1.2c-0.4,0.8-1,1.5-1.7,1.9c-0.9,0.5-1.8,0.7-2.8,0.7   C358,22.9,357,22.7,356.1,22.2z" id="svg_20"/>
	<path class="st0" d="M366.1,22.6c-0.7-0.2-1.3-0.4-1.9-0.8l1-2.1c0.5,0.3,1.1,0.5,1.6,0.7c0.6,0.2,1.2,0.3,1.9,0.3   c1.2,0,1.9-0.3,1.9-0.9c0-0.3-0.2-0.6-0.5-0.6c-0.5-0.2-1-0.3-1.6-0.3c-0.7-0.1-1.4-0.2-2-0.4c-0.5-0.2-1-0.5-1.4-0.9   c-0.4-0.5-0.6-1.1-0.6-1.8c0-0.6,0.2-1.2,0.6-1.7c0.4-0.5,1-0.9,1.6-1.1c0.8-0.3,1.6-0.4,2.5-0.4c0.7,0,1.4,0.1,2.1,0.2   c0.6,0.1,1.2,0.3,1.7,0.6l-1,2.1c-0.9-0.5-1.9-0.8-2.9-0.7c-0.5,0-1,0.1-1.4,0.3c-0.3,0.1-0.5,0.4-0.5,0.7c0,0.3,0.2,0.6,0.5,0.7   c0.5,0.2,1.1,0.3,1.6,0.4c0.7,0.1,1.4,0.3,2,0.4c0.5,0.2,1,0.4,1.4,0.9c0.4,0.5,0.6,1.1,0.6,1.7c0,0.6-0.2,1.2-0.6,1.7   c-0.4,0.5-1,0.9-1.6,1.1c-0.8,0.3-1.7,0.4-2.6,0.4C367.7,22.9,366.9,22.8,366.1,22.6z" id="svg_21"/>
	<path class="st0" d="M389.5,16h2.8v5.3c-0.7,0.6-1.6,1-2.5,1.2c-0.9,0.3-1.9,0.4-2.8,0.4c-1.3,0-2.5-0.3-3.7-0.9   c-1.1-0.6-1.9-1.4-2.6-2.4c-1.2-2.2-1.2-4.8,0-7c0.6-1,1.5-1.9,2.6-2.4c1.1-0.6,2.4-0.9,3.7-0.9c1.1,0,2.1,0.2,3.1,0.6   c0.9,0.4,1.7,0.9,2.4,1.7l-1.9,1.8c-0.9-1-2.1-1.5-3.4-1.5c-0.8,0-1.5,0.2-2.2,0.5c-0.6,0.3-1.2,0.8-1.5,1.5c-0.7,1.4-0.7,3,0,4.4   c0.4,0.6,0.9,1.1,1.5,1.5c0.7,0.4,1.4,0.5,2.2,0.5c0.8,0,1.6-0.2,2.4-0.6L389.5,16z" id="svg_22"/>
	<path class="st0" d="M399,12.9c0.7-0.3,1.3-0.4,2-0.4v2.7c-0.3,0-0.5,0-0.7,0c-0.7,0-1.4,0.2-2,0.7c-0.5,0.6-0.8,1.3-0.7,2.1v4.8   h-2.9V12.7h2.8V14C398,13.5,398.5,13.1,399,12.9z" id="svg_23"/>
	<path class="st0" d="M404.7,22.2c-0.8-0.4-1.5-1.1-2-1.8c-0.9-1.7-0.9-3.7,0-5.3c0.5-0.8,1.2-1.4,2-1.8c1.8-0.9,3.9-0.9,5.7,0   c0.8,0.4,1.5,1.1,2,1.8c0.9,1.7,0.9,3.7,0,5.3c-0.5,0.8-1.2,1.4-2,1.8C408.6,23.1,406.4,23.1,404.7,22.2z M409.3,19.7   c0.5-0.6,0.8-1.3,0.7-2c0-0.7-0.2-1.5-0.7-2c-0.5-0.5-1.1-0.8-1.8-0.8c-0.7,0-1.4,0.3-1.9,0.8c-0.5,0.6-0.8,1.3-0.7,2   c0,0.7,0.2,1.5,0.7,2c0.5,0.5,1.2,0.8,1.9,0.8C408.2,20.5,408.9,20.2,409.3,19.7z" id="svg_24"/>
	<path class="st0" d="M425.1,12.7v10.1h-2.8v-1.2c-0.4,0.4-0.9,0.8-1.4,1c-0.5,0.2-1.1,0.4-1.7,0.3c-1.2,0.1-2.3-0.4-3.1-1.1   c-0.8-0.9-1.3-2.1-1.2-3.4v-5.7h2.9v5.3c0,1.6,0.7,2.4,2,2.4c0.6,0,1.2-0.2,1.7-0.7c0.5-0.6,0.7-1.3,0.6-2v-5H425.1z" id="svg_25"/>
	<path class="st0" d="M436.3,13.2c0.8,0.4,1.4,1.1,1.8,1.8c0.9,1.7,0.9,3.7,0,5.4c-0.4,0.8-1,1.4-1.8,1.8c-0.8,0.4-1.7,0.7-2.6,0.6   c-1.1,0.1-2.2-0.4-3-1.2v4.7h-2.9V12.7h2.8v1.2c0.8-0.9,2-1.4,3.2-1.3C434.7,12.5,435.5,12.7,436.3,13.2z M435.1,19.7   c0.5-0.6,0.8-1.3,0.7-2c0-0.7-0.2-1.5-0.7-2c-1-1-2.7-1-3.7,0c-0.5,0.6-0.8,1.3-0.7,2c0,0.7,0.2,1.5,0.7,2   C432.4,20.7,434.1,20.7,435.1,19.7z" id="svg_26"/>
	<path class="st0" d="M447.9,22.2c-0.8-0.4-1.5-1.1-2-1.8c-0.9-1.7-0.9-3.7,0-5.3c0.5-0.8,1.2-1.4,2-1.8c1.8-0.9,3.9-0.9,5.7,0   c0.8,0.4,1.5,1.1,2,1.8c0.9,1.7,0.9,3.7,0,5.3c-0.5,0.8-1.2,1.4-2,1.8C451.8,23.1,449.7,23.1,447.9,22.2L447.9,22.2z M452.6,19.7   c0.5-0.6,0.8-1.3,0.7-2c0-0.7-0.2-1.5-0.7-2c-0.5-0.5-1.1-0.8-1.8-0.8c-0.7,0-1.4,0.3-1.9,0.8c-0.5,0.6-0.8,1.3-0.7,2   c0,0.7,0.2,1.5,0.7,2c0.5,0.5,1.2,0.8,1.9,0.8C451.5,20.5,452.2,20.2,452.6,19.7z" id="svg_27"/>
	<path class="st0" d="M461.5,12.9h2.6v2.2h-2.5v7.6h-2.9v-7.6h-1.6v-2.2h1.6v-0.4c-0.1-1,0.3-2,1-2.7c0.8-0.7,1.8-1.1,2.9-1   c0.4,0,0.8,0,1.2,0.1c0.3,0.1,0.7,0.2,1,0.4l-0.8,2.1c-0.3-0.2-0.8-0.4-1.2-0.4c-0.9,0-1.3,0.5-1.3,1.5L461.5,12.9z" id="svg_28"/>
	<path class="st0" d="M471,22.5c-0.7-0.3-1.3-0.8-1.8-1.4l1.7-2c0.5,0.9,1.4,1.4,2.4,1.4c1.2,0,1.9-0.7,1.9-2.2v-6.2h-4.6V9.6h7.6   v8.5c0.1,1.3-0.3,2.6-1.2,3.6c-1,0.9-2.2,1.3-3.5,1.2C472.6,23,471.7,22.8,471,22.5z" id="svg_29"/>
	<path class="st0" d="M488.5,13.6c0.9,0.9,1.3,2.1,1.3,3.4v5.7h-2.7v-1.3c-0.7,1-1.9,1.5-3.1,1.4c-0.7,0-1.4-0.1-2-0.4   c-0.5-0.2-1-0.6-1.3-1.1c-0.3-0.5-0.5-1-0.4-1.6c0-0.9,0.4-1.7,1.1-2.2c1-0.6,2.1-0.9,3.3-0.8h2.3c0-0.6-0.2-1.1-0.6-1.5   c-0.5-0.4-1.1-0.6-1.7-0.5c-0.5,0-1.1,0.1-1.6,0.3c-0.5,0.1-0.9,0.4-1.3,0.7l-1-2c0.6-0.4,1.3-0.7,2-0.9c0.8-0.2,1.6-0.3,2.4-0.3   C486.3,12.4,487.5,12.8,488.5,13.6z M486.1,20.6c0.4-0.2,0.7-0.6,0.8-1v-1h-2c-1.2,0-1.8,0.4-1.8,1.2c0,0.4,0.2,0.7,0.4,0.9   c0.4,0.2,0.8,0.4,1.2,0.3C485.2,20.9,485.7,20.8,486.1,20.6z" id="svg_30"/>
	<path class="st0" d="M502.3,18.5h-7.6c0.1,0.6,0.5,1.1,1,1.5c0.6,0.4,1.2,0.6,1.9,0.5c0.5,0,0.9-0.1,1.4-0.2   c0.4-0.2,0.8-0.4,1.1-0.7l1.6,1.7c-1.1,1.1-2.6,1.7-4.2,1.6c-1,0-2.1-0.2-3-0.7c-0.8-0.4-1.5-1-2-1.8c-0.5-0.8-0.7-1.7-0.7-2.7   c0-0.9,0.2-1.9,0.7-2.7c0.5-0.8,1.1-1.4,1.9-1.9c1.7-0.9,3.7-0.9,5.4,0c0.8,0.4,1.4,1,1.9,1.8c0.5,0.8,0.7,1.8,0.7,2.8   C502.4,17.8,502.4,18,502.3,18.5z M495.5,15.3c-0.5,0.4-0.8,0.9-0.8,1.5h5c-0.1-0.6-0.4-1.1-0.8-1.5c-0.5-0.4-1-0.6-1.6-0.6   C496.6,14.7,496,14.9,495.5,15.3z M497.9,8.7h3.1l-3.4,2.7h-2.3L497.9,8.7z" id="svg_31"/>
	<path class="st0" d="M513.5,13.6c0.8,0.9,1.2,2.1,1.2,3.3v5.8h-2.9v-5.3c0-0.6-0.1-1.3-0.5-1.8c-0.4-0.4-0.9-0.6-1.5-0.6   c-0.7,0-1.3,0.2-1.8,0.7c-0.5,0.6-0.7,1.3-0.7,2v5h-2.9V12.7h2.8v1.2c0.4-0.4,0.9-0.8,1.4-1c0.6-0.2,1.2-0.4,1.9-0.3   C511.6,12.5,512.7,12.9,513.5,13.6z" id="svg_32"/>
	<path class="st0" d="M144.7,45.3h1.1v4.3c-0.5,0.5-1.2,0.8-1.9,1.1c-0.7,0.2-1.5,0.4-2.3,0.4c-1.1,0-2.1-0.2-3-0.7   c-0.9-0.5-1.6-1.2-2.1-2c-1-1.8-1-4,0-5.8c0.5-0.9,1.2-1.6,2.1-2c0.9-0.5,2-0.8,3-0.7c0.8,0,1.6,0.1,2.4,0.4   c0.7,0.3,1.3,0.7,1.8,1.2l-0.7,0.8c-0.9-0.9-2.1-1.4-3.4-1.3c-0.9,0-1.7,0.2-2.5,0.6c-0.7,0.4-1.3,1-1.7,1.7   c-0.8,1.5-0.8,3.3,0,4.7c0.4,0.7,1,1.3,1.7,1.7c1.7,0.9,3.8,0.8,5.4-0.3L144.7,45.3z" id="svg_33"/>
	<path class="st0" d="M151.2,42.9c0.6-0.3,1.3-0.5,2-0.4v1.1l-0.3,0c-0.8,0-1.5,0.3-2.1,0.8c-0.5,0.6-0.8,1.5-0.8,2.3v4.3h-1.1v-8.4   h1.1v1.6C150.3,43.6,150.7,43.2,151.2,42.9z" id="svg_34"/>
	<path class="st0" d="M156.4,50.5c-0.6-0.4-1.2-0.9-1.5-1.5c-0.7-1.4-0.7-3,0-4.4c0.4-0.6,0.9-1.2,1.5-1.5c1.4-0.7,3-0.7,4.4,0   c0.6,0.4,1.2,0.9,1.5,1.5c0.7,1.4,0.7,3,0,4.4c-0.4,0.6-0.9,1.2-1.5,1.5C159.4,51.2,157.8,51.2,156.4,50.5z M160.2,49.6   c0.5-0.3,0.9-0.7,1.1-1.2c0.5-1.1,0.5-2.3,0-3.4c-0.3-0.5-0.6-0.9-1.1-1.2c-1-0.5-2.2-0.5-3.2,0c-0.5,0.3-0.9,0.7-1.1,1.2   c-0.5,1.1-0.5,2.3,0,3.4c0.3,0.5,0.6,0.9,1.1,1.2C158,50.1,159.2,50.1,160.2,49.6z" id="svg_35"/>
	<path class="st0" d="M172.8,42.5v8.4h-1.1v-1.5c-0.3,0.5-0.7,0.9-1.2,1.2c-0.6,0.3-1.2,0.4-1.8,0.4c-1.8,0.2-3.4-1.1-3.6-2.9   c0-0.2,0-0.5,0-0.7v-4.9h1.1v4.8c-0.1,0.7,0.2,1.5,0.7,2c0.5,0.5,1.2,0.7,1.9,0.7c0.8,0,1.5-0.3,2.1-0.8c0.5-0.6,0.8-1.4,0.8-2.2   v-4.4L172.8,42.5z" id="svg_36"/>
	<path class="st0" d="M182.4,43c0.6,0.4,1.2,0.9,1.5,1.5c0.7,1.4,0.7,3.1,0,4.5c-0.3,0.6-0.9,1.2-1.5,1.5c-0.7,0.4-1.4,0.5-2.2,0.5   c-0.6,0-1.3-0.1-1.8-0.4c-0.6-0.3-1-0.7-1.4-1.2V54H176V42.5h1.1v1.7c0.3-0.5,0.8-1,1.4-1.3c0.6-0.3,1.2-0.5,1.9-0.4   C181,42.4,181.8,42.6,182.4,43z M181.8,49.6c0.5-0.3,0.9-0.7,1.1-1.2c0.3-0.5,0.4-1.1,0.4-1.7c0-0.6-0.1-1.2-0.4-1.7   c-0.3-0.5-0.7-0.9-1.1-1.2c-1-0.6-2.2-0.6-3.2,0c-0.5,0.3-0.9,0.7-1.1,1.2c-0.3,0.5-0.4,1.1-0.4,1.7c0,0.6,0.1,1.2,0.4,1.7   c0.3,0.5,0.6,0.9,1.1,1.2C179.6,50.1,180.8,50.1,181.8,49.6z" id="svg_37"/>
	<path class="st0" d="M193.4,40.8h-3.9v-1h9.1v1h-3.9v10.2h-1.2L193.4,40.8z" id="svg_38"/>
	<path class="st0" d="M200.4,39.7h1.2v11.2h-1.2V39.7z" id="svg_39"/>
	<path class="st0" d="M207.1,50.3c-0.9-0.5-1.6-1.2-2.1-2c-1-1.8-1-4,0-5.8c0.5-0.9,1.2-1.6,2.1-2c0.9-0.5,2-0.8,3-0.7   c0.8,0,1.6,0.1,2.3,0.4c0.7,0.3,1.3,0.7,1.8,1.2l-0.8,0.8c-0.9-0.9-2.1-1.4-3.3-1.3c-0.8,0-1.7,0.2-2.4,0.6c-0.7,0.4-1.3,1-1.7,1.7   c-0.8,1.5-0.8,3.3,0,4.7c0.4,0.7,1,1.3,1.7,1.7c0.7,0.4,1.6,0.6,2.4,0.6c1.2,0,2.4-0.4,3.3-1.3l0.8,0.8c-0.5,0.5-1.1,1-1.8,1.2   c-0.7,0.3-1.5,0.4-2.3,0.4C209.1,51,208,50.8,207.1,50.3z" id="svg_40"/>
	<path class="st0" d="M215.9,46.1h4.2v1h-4.2V46.1z" id="svg_41"/>
	<path class="st0" d="M224.7,39.7v11.2h-1.2V40.8h-2.6v-1H224.7z" id="svg_42"/>
	<path class="st0" d="M236.9,48h-2.2v2.9h-1.2V48h-6.3v-0.8l5.9-7.4h1.3l-5.7,7.2h4.9v-2.6h1.1V47h2.2V48z" id="svg_43"/>
	<path class="st0" d="M247.4,48h-2.2v2.9H244V48h-6.3v-0.8l5.9-7.4h1.3l-5.7,7.2h4.9v-2.6h1.1V47h2.2V48z" id="svg_44"/>
	<path class="st0" d="M254.7,50.5c-0.6-0.4-1.2-0.9-1.5-1.5c-0.7-1.4-0.7-3,0-4.4c0.4-0.6,0.9-1.2,1.5-1.5c1.4-0.7,3-0.7,4.4,0   c0.6,0.4,1.2,0.9,1.5,1.5c0.7,1.4,0.7,3,0,4.4c-0.4,0.6-0.9,1.2-1.5,1.5C257.7,51.2,256.1,51.2,254.7,50.5z M258.5,49.6   c0.5-0.3,0.9-0.7,1.1-1.2c0.5-1.1,0.5-2.3,0-3.4c-0.3-0.5-0.6-0.9-1.1-1.2c-1-0.5-2.2-0.5-3.2,0c-0.5,0.3-0.9,0.7-1.1,1.2   c-0.5,1.1-0.5,2.3,0,3.4c0.3,0.5,0.6,0.9,1.1,1.2C256.3,50.1,257.5,50.1,258.5,49.6z" id="svg_45"/>
	<path class="st0" d="M265.1,40.3c-0.3,0.3-0.4,0.8-0.4,1.2v1h2.6v1h-2.6v7.5h-1.1v-7.5h-1.5v-1h1.5v-1c0-0.7,0.2-1.3,0.7-1.8   c0.5-0.5,1.2-0.7,1.9-0.7c0.3,0,0.6,0,0.9,0.1c0.3,0.1,0.5,0.2,0.8,0.4l-0.4,0.8c-0.4-0.3-0.8-0.4-1.2-0.4   C265.8,39.9,265.4,40.1,265.1,40.3z" id="svg_46"/>
	<path class="st0" d="M277.5,50.4c-0.2,0.2-0.5,0.4-0.8,0.4c-0.3,0.1-0.6,0.2-1,0.2c-1.2,0.1-2.3-0.7-2.5-2c0-0.2,0-0.3,0-0.5v-5.1   h-1.5v-1h1.5v-1.8h1.1v1.8h2.6v1h-2.6v5c0,0.4,0.1,0.8,0.4,1.1c0.3,0.3,0.7,0.4,1.1,0.4c0.2,0,0.5,0,0.7-0.1   c0.2-0.1,0.4-0.2,0.6-0.3L277.5,50.4z" id="svg_47"/>
	<path class="st0" d="M286.4,43.4c0.7,0.7,1,1.7,0.9,2.7v4.9h-1.1v-4.8c0.1-0.7-0.2-1.4-0.7-2c-0.5-0.5-1.2-0.7-1.9-0.7   c-0.8,0-1.6,0.3-2.2,0.8c-0.6,0.6-0.8,1.4-0.8,2.2v4.4h-1.1V39.1h1.1V44c0.3-0.5,0.8-0.9,1.3-1.1c0.6-0.3,1.2-0.4,1.9-0.4   C284.8,42.4,285.7,42.7,286.4,43.4z" id="svg_48"/>
	<path class="st0" d="M297.8,47.1h-7c0,0.8,0.4,1.6,1,2.1c0.6,0.6,1.5,0.8,2.3,0.8c0.5,0,1-0.1,1.4-0.3c0.4-0.2,0.8-0.5,1.1-0.8   l0.6,0.7c-0.4,0.5-0.9,0.8-1.4,1c-0.6,0.2-1.2,0.4-1.8,0.4c-0.8,0-1.6-0.2-2.3-0.6c-0.7-0.4-1.2-0.9-1.6-1.5   c-0.4-0.7-0.6-1.4-0.6-2.2c0-0.8,0.2-1.5,0.5-2.2c0.3-0.6,0.9-1.2,1.5-1.5c0.6-0.4,1.4-0.6,2.1-0.5c0.7,0,1.5,0.2,2.1,0.5   c0.6,0.4,1.1,0.9,1.5,1.5c0.4,0.7,0.5,1.4,0.5,2.2L297.8,47.1z M291.7,44.2c-0.6,0.5-0.9,1.3-0.9,2h6c0-0.8-0.4-1.5-0.9-2   C294.6,43.2,292.8,43.2,291.7,44.2L291.7,44.2z" id="svg_49"/>
	<path class="st0" d="M311.6,47.9h-6.2l-1.3,3h-1.2l5.1-11.2h1.2l5.1,11.2h-1.2L311.6,47.9z M311.1,47l-2.7-6l-2.7,6H311.1z" id="svg_50"/>
	<path class="st0" d="M322.6,43.4c0.7,0.7,1,1.7,0.9,2.7v4.9h-1.1v-4.8c0.1-0.7-0.2-1.4-0.7-2c-0.5-0.5-1.2-0.7-1.9-0.7   c-0.8,0-1.6,0.3-2.2,0.8c-0.6,0.6-0.8,1.4-0.8,2.2v4.4h-1.1v-8.4h1.1v1.6c0.3-0.5,0.8-0.9,1.3-1.2c0.6-0.3,1.2-0.4,1.9-0.4   C321,42.4,321.9,42.7,322.6,43.4z" id="svg_51"/>
	<path class="st0" d="M334.3,39.1v11.9h-1.1v-1.7c-0.3,0.5-0.8,1-1.4,1.3c-0.6,0.3-1.2,0.5-1.9,0.4c-0.8,0-1.5-0.2-2.1-0.5   c-0.6-0.4-1.2-0.9-1.5-1.5c-0.7-1.4-0.7-3.1,0-4.4c0.3-0.6,0.9-1.2,1.5-1.5c0.7-0.4,1.4-0.5,2.1-0.5c0.6,0,1.3,0.1,1.8,0.4   c0.6,0.3,1,0.7,1.4,1.2v-5.1H334.3z M331.7,49.6c0.5-0.3,0.9-0.7,1.1-1.2c0.5-1.1,0.5-2.3,0-3.4c-0.3-0.5-0.6-0.9-1.1-1.2   c-1-0.5-2.2-0.5-3.2,0c-0.5,0.3-0.9,0.7-1.1,1.2c-0.5,1.1-0.5,2.3,0,3.4c0.3,0.5,0.6,0.9,1.1,1.2C329.5,50.1,330.7,50.1,331.7,49.6   z" id="svg_52"/>
	<path class="st0" d="M343,43.3c0.6,0.7,0.9,1.5,0.9,2.4v5.2h-1.1v-1.3c-0.3,0.4-0.7,0.8-1.1,1c-0.6,0.3-1.2,0.4-1.8,0.4   c-0.8,0-1.6-0.2-2.2-0.7c-1-0.8-1.1-2.3-0.3-3.3c0.1-0.1,0.2-0.2,0.2-0.2c0.7-0.5,1.6-0.7,2.5-0.7h2.7v-0.5c0-0.6-0.2-1.2-0.6-1.7   c-0.5-0.4-1.1-0.6-1.8-0.6c-0.5,0-1,0.1-1.5,0.3c-0.5,0.2-0.9,0.4-1.3,0.7l-0.5-0.8c0.5-0.4,1-0.7,1.5-0.8c0.6-0.2,1.2-0.3,1.9-0.3   C341.3,42.4,342.3,42.7,343,43.3z M341.7,49.7c0.5-0.3,0.8-0.8,1-1.3V47h-2.6c-1.4,0-2.2,0.5-2.2,1.5c0,0.5,0.2,0.9,0.6,1.2   c0.5,0.3,1,0.5,1.6,0.4C340.6,50.1,341.2,50,341.7,49.7z" id="svg_53"/>
	<path class="st0" d="M346.9,39.1h1.1v11.9h-1.1V39.1z" id="svg_54"/>
	<path class="st0" d="M358.8,42.5v8.4h-1.1v-1.5c-0.3,0.5-0.7,0.9-1.2,1.2c-0.6,0.3-1.2,0.4-1.8,0.4c-1.8,0.2-3.4-1.1-3.6-2.9   c0-0.2,0-0.5,0-0.7v-4.9h1.1v4.8c-0.1,0.7,0.2,1.5,0.7,2c0.5,0.5,1.2,0.7,1.9,0.7c0.8,0,1.5-0.3,2.1-0.8c0.5-0.6,0.8-1.4,0.8-2.2   v-4.4L358.8,42.5z" id="svg_55"/>
	<path class="st0" d="M362.3,50.7c-0.5-0.1-1-0.4-1.5-0.7l0.5-0.9c0.4,0.3,0.8,0.5,1.3,0.7c0.5,0.2,1.1,0.3,1.7,0.3   c0.6,0,1.2-0.1,1.7-0.4c0.4-0.2,0.6-0.6,0.6-1c0-0.3-0.1-0.5-0.3-0.7c-0.2-0.2-0.5-0.3-0.8-0.4c-0.4-0.1-0.8-0.2-1.2-0.3   c-0.6-0.1-1.1-0.2-1.6-0.4c-0.4-0.1-0.8-0.4-1.1-0.7c-0.3-0.4-0.5-0.8-0.4-1.3c0-0.7,0.3-1.3,0.9-1.7c0.7-0.5,1.6-0.7,2.4-0.7   c0.6,0,1.1,0.1,1.6,0.2c0.5,0.1,0.9,0.3,1.3,0.6l-0.5,0.9c-0.7-0.5-1.6-0.7-2.5-0.7c-0.6,0-1.1,0.1-1.6,0.4c-0.3,0.2-0.6,0.6-0.6,1   c0,0.3,0.1,0.6,0.3,0.8c0.2,0.2,0.5,0.3,0.8,0.4c0.4,0.1,0.8,0.2,1.3,0.3c0.5,0.1,1.1,0.2,1.6,0.4c0.4,0.1,0.8,0.3,1,0.7   c0.3,0.4,0.5,0.8,0.4,1.3c0,0.7-0.3,1.4-0.9,1.8c-0.8,0.5-1.7,0.7-2.6,0.6C363.6,51,362.9,50.9,362.3,50.7z" id="svg_56"/>
	<path class="st0" d="M369.8,40.4c-0.2-0.2-0.2-0.4-0.2-0.6c0-0.2,0.1-0.4,0.2-0.6c0.2-0.2,0.4-0.2,0.6-0.2c0.2,0,0.4,0.1,0.6,0.2   c0.2,0.1,0.2,0.3,0.2,0.6c0,0.5-0.4,0.8-0.8,0.8C370.2,40.7,370,40.6,369.8,40.4z M369.8,42.5h1.1v8.4h-1.1V42.5z" id="svg_57"/>
	<path class="st0" d="M379.6,43.3c0.6,0.7,0.9,1.5,0.9,2.4v5.2h-1.1v-1.3c-0.3,0.4-0.7,0.8-1.1,1c-0.6,0.3-1.2,0.4-1.8,0.4   c-0.8,0-1.6-0.2-2.2-0.7c-1-0.8-1.1-2.3-0.3-3.3c0.1-0.1,0.2-0.2,0.2-0.2c0.7-0.5,1.6-0.7,2.5-0.7h2.7v-0.5c0-0.6-0.2-1.2-0.6-1.7   c-0.5-0.4-1.1-0.6-1.8-0.6c-0.5,0-1,0.1-1.5,0.3c-0.5,0.2-0.9,0.4-1.3,0.7l-0.5-0.8c0.5-0.4,1-0.7,1.5-0.8c0.6-0.2,1.2-0.3,1.9-0.3   C378,42.4,378.9,42.7,379.6,43.3z M378.3,49.7c0.5-0.3,0.8-0.8,1-1.3V47h-2.6c-1.4,0-2.2,0.5-2.2,1.5c0,0.5,0.2,0.9,0.6,1.2   c0.5,0.3,1,0.5,1.6,0.4C377.2,50.1,377.8,50,378.3,49.7z" id="svg_58"/>
	<path class="st0" d="M390.4,43.4c0.7,0.7,1,1.7,0.9,2.7v4.9h-1.1v-4.8c0.1-0.7-0.2-1.4-0.7-2c-0.5-0.5-1.2-0.7-1.9-0.7   c-0.8,0-1.6,0.3-2.2,0.8c-0.6,0.6-0.8,1.4-0.8,2.2v4.4h-1.1v-8.4h1.1v1.6c0.3-0.5,0.8-0.9,1.3-1.2c0.6-0.3,1.2-0.4,1.9-0.4   C388.8,42.4,389.7,42.7,390.4,43.4z" id="svg_59"/>
	<path class="st0" d="M406.4,40.8c1.6,1.5,1.6,3.9,0.2,5.5c-0.1,0.1-0.1,0.1-0.2,0.2c-1,0.7-2.2,1.1-3.4,1h-3v3.5h-1.2V39.7h4.2   C404.2,39.7,405.4,40,406.4,40.8z M405.5,45.6c0.6-0.5,0.9-1.3,0.9-2.1c0-0.8-0.3-1.6-0.9-2.1c-0.7-0.5-1.6-0.8-2.5-0.7h-3v5.6h3   C403.9,46.4,404.8,46.2,405.5,45.6z" id="svg_60"/>
	<path class="st0" d="M410.1,39.1h1.1v11.9h-1.1V39.1z" id="svg_61"/>
	<path class="st0" d="M419.9,43.3c0.6,0.7,0.9,1.5,0.9,2.4v5.2h-1.1v-1.3c-0.3,0.4-0.7,0.8-1.1,1c-0.6,0.3-1.2,0.4-1.8,0.4   c-0.8,0-1.6-0.2-2.2-0.7c-1-0.8-1.1-2.3-0.3-3.3c0.1-0.1,0.2-0.2,0.2-0.2c0.7-0.5,1.6-0.7,2.5-0.7h2.7v-0.5c0-0.6-0.2-1.2-0.6-1.7   c-0.5-0.4-1.1-0.6-1.8-0.6c-0.5,0-1,0.1-1.5,0.3c-0.5,0.2-0.9,0.4-1.3,0.7l-0.5-0.8c0.5-0.4,1-0.7,1.5-0.8c0.6-0.2,1.2-0.3,1.9-0.3   C418.2,42.4,419.1,42.7,419.9,43.3z M418.6,49.7c0.5-0.3,0.8-0.8,1-1.3V47H417c-1.4,0-2.2,0.5-2.2,1.5c0,0.5,0.2,0.9,0.6,1.2   c0.5,0.3,1,0.5,1.6,0.4C417.5,50.1,418.1,50,418.6,49.7z" id="svg_62"/>
	<path class="st0" d="M430.6,43.4c0.7,0.7,1,1.7,0.9,2.7v4.9h-1.1v-4.8c0.1-0.7-0.2-1.4-0.7-2c-0.5-0.5-1.2-0.7-1.9-0.7   c-0.8,0-1.6,0.3-2.2,0.8c-0.6,0.6-0.8,1.4-0.8,2.2v4.4h-1.1v-8.4h1.1v1.6c0.3-0.5,0.8-0.9,1.3-1.2c0.6-0.3,1.2-0.4,1.9-0.4   C429,42.4,429.9,42.7,430.6,43.4z" id="svg_63"/>
	<path class="st0" d="M440.1,50.5c-0.6-0.4-1.2-0.9-1.5-1.5c-0.7-1.4-0.7-3,0-4.4c0.4-0.6,0.9-1.2,1.5-1.5c1.4-0.7,3-0.7,4.4,0   c0.6,0.4,1.2,0.9,1.5,1.5c0.7,1.4,0.7,3,0,4.4c-0.4,0.6-0.9,1.2-1.5,1.5C443.1,51.2,441.5,51.2,440.1,50.5z M443.9,49.6   c0.5-0.3,0.9-0.7,1.1-1.2c0.5-1.1,0.5-2.3,0-3.4c-0.3-0.5-0.6-0.9-1.1-1.2c-1-0.5-2.2-0.5-3.2,0c-0.5,0.3-0.9,0.7-1.1,1.2   c-0.5,1.1-0.5,2.3,0,3.4c0.3,0.5,0.6,0.9,1.1,1.2C441.7,50.1,442.9,50.1,443.9,49.6z" id="svg_64"/>
	<path class="st0" d="M450.5,40.3c-0.3,0.3-0.4,0.8-0.4,1.2v1h2.6v1h-2.6v7.5h-1.1v-7.5h-1.5v-1h1.5v-1c0-0.7,0.2-1.3,0.7-1.8   c0.5-0.5,1.2-0.7,1.9-0.7c0.3,0,0.6,0,0.9,0.1c0.3,0.1,0.5,0.2,0.8,0.4l-0.4,0.8c-0.4-0.3-0.8-0.4-1.2-0.4   C451.2,39.9,450.8,40.1,450.5,40.3z" id="svg_65"/>
	<path class="st0" d="M466.4,50.9l-2.6-3.6c-0.3,0-0.6,0-0.9,0h-3v3.6h-1.2V39.7h4.2c1.2-0.1,2.4,0.3,3.4,1c0.8,0.7,1.3,1.7,1.2,2.8   c0.1,1.6-1,3.1-2.6,3.5l2.7,3.8L466.4,50.9z M465.4,45.6c1.1-1.1,1.2-2.9,0.1-4.1c0,0,0,0-0.1-0.1c-0.7-0.5-1.6-0.8-2.5-0.7h-3v5.6   h3C463.8,46.4,464.7,46.2,465.4,45.6z" id="svg_66"/>
	<path class="st0" d="M477.4,47.1h-7c0,0.8,0.4,1.6,1,2.1c0.6,0.6,1.5,0.8,2.3,0.8c0.5,0,1-0.1,1.4-0.3c0.4-0.2,0.8-0.5,1.1-0.8   l0.6,0.7c-0.4,0.4-0.9,0.8-1.4,1c-0.6,0.2-1.2,0.4-1.8,0.4c-0.8,0-1.6-0.2-2.3-0.6c-0.7-0.4-1.2-0.9-1.6-1.5   c-0.4-0.7-0.6-1.4-0.6-2.2c0-0.8,0.2-1.5,0.5-2.2c0.3-0.6,0.8-1.2,1.5-1.5c1.3-0.7,2.9-0.7,4.2,0c0.6,0.4,1.1,0.9,1.5,1.5   c0.4,0.7,0.5,1.4,0.5,2.2L477.4,47.1z M471.3,44.2c-0.6,0.5-0.9,1.3-0.9,2h6c0-0.8-0.4-1.5-0.9-2C474.2,43.2,472.5,43.2,471.3,44.2   z" id="svg_67"/>
	<path class="st0" d="M480,50.7c-0.5-0.1-1-0.4-1.5-0.7l0.5-0.9c0.4,0.3,0.8,0.5,1.3,0.7c0.5,0.2,1.1,0.3,1.7,0.3   c0.6,0,1.2-0.1,1.7-0.4c0.4-0.2,0.6-0.6,0.6-1c0-0.3-0.1-0.5-0.3-0.7c-0.2-0.2-0.5-0.3-0.8-0.4c-0.4-0.1-0.8-0.2-1.2-0.3   c-0.6-0.1-1.1-0.2-1.6-0.4c-0.4-0.1-0.8-0.4-1.1-0.7c-0.3-0.4-0.5-0.8-0.4-1.3c0-0.7,0.3-1.3,0.9-1.7c0.7-0.5,1.6-0.7,2.4-0.7   c0.6,0,1.1,0.1,1.6,0.2c0.5,0.1,0.9,0.3,1.3,0.6l-0.5,0.9c-0.7-0.5-1.6-0.7-2.5-0.7c-0.6,0-1.1,0.1-1.6,0.4c-0.3,0.2-0.6,0.6-0.6,1   c0,0.3,0.1,0.6,0.3,0.8c0.2,0.2,0.5,0.3,0.8,0.4c0.4,0.1,0.8,0.2,1.3,0.3c0.5,0.1,1.1,0.2,1.6,0.4c0.4,0.1,0.8,0.3,1,0.7   c0.3,0.4,0.5,0.8,0.4,1.3c0,0.7-0.3,1.4-0.9,1.8c-0.8,0.5-1.7,0.7-2.6,0.6C481.3,51,480.7,50.9,480,50.7z" id="svg_68"/>
	<path class="st0" d="M494.9,47.1h-7c0,0.8,0.4,1.6,1,2.1c0.6,0.6,1.5,0.8,2.3,0.8c0.5,0,1-0.1,1.4-0.3c0.4-0.2,0.8-0.5,1.1-0.8   l0.6,0.7c-0.4,0.4-0.9,0.8-1.4,1c-0.6,0.2-1.2,0.4-1.8,0.4c-0.8,0-1.6-0.2-2.3-0.6c-0.7-0.4-1.2-0.9-1.6-1.5   c-0.4-0.7-0.6-1.4-0.6-2.2c0-0.8,0.2-1.5,0.5-2.2c0.3-0.6,0.8-1.2,1.5-1.5c1.3-0.7,2.9-0.7,4.2,0c0.6,0.4,1.1,0.9,1.5,1.5   c0.4,0.7,0.5,1.4,0.5,2.2L494.9,47.1z M488.8,44.2c-0.6,0.5-0.9,1.3-0.9,2h6c0-0.8-0.4-1.5-0.9-2C491.7,43.2,489.9,43.2,488.8,44.2   L488.8,44.2z" id="svg_69"/>
	<path class="st0" d="M502.4,43.3c0.6,0.7,0.9,1.5,0.9,2.4v5.2h-1.1v-1.3c-0.3,0.4-0.7,0.8-1.1,1c-0.6,0.3-1.2,0.4-1.8,0.4   c-0.8,0-1.6-0.2-2.2-0.7c-1-0.8-1.1-2.3-0.3-3.3c0.1-0.1,0.2-0.2,0.2-0.2c0.7-0.5,1.6-0.7,2.5-0.7h2.7v-0.5c0-0.6-0.2-1.2-0.6-1.7   c-0.5-0.4-1.1-0.6-1.8-0.6c-0.5,0-1,0.1-1.5,0.3c-0.5,0.2-0.9,0.4-1.3,0.7l-0.5-0.8c0.5-0.4,1-0.7,1.5-0.8c0.6-0.2,1.2-0.3,1.9-0.3   C500.8,42.4,501.7,42.7,502.4,43.3z M501.2,49.7c0.5-0.3,0.8-0.8,1-1.3V47h-2.6c-1.4,0-2.2,0.5-2.2,1.5c0,0.5,0.2,0.9,0.6,1.2   c0.5,0.3,1,0.5,1.6,0.4C500.1,50.1,500.7,50,501.2,49.7z" id="svg_70"/>
	<path class="st0" d="M508.7,42.9c0.6-0.3,1.3-0.5,2-0.4v1.1l-0.3,0c-0.8,0-1.5,0.3-2.1,0.8c-0.5,0.6-0.8,1.5-0.8,2.3v4.3h-1.1v-8.4   h1.1v1.6C507.7,43.6,508.2,43.2,508.7,42.9z" id="svg_71"/>
	<path class="st0" d="M513.9,50.5c-0.6-0.4-1.2-0.9-1.5-1.5c-0.4-0.7-0.6-1.4-0.6-2.2c0-0.8,0.2-1.5,0.6-2.2   c0.4-0.6,0.9-1.2,1.5-1.5c0.7-0.4,1.5-0.6,2.2-0.5c0.7,0,1.3,0.1,1.9,0.4c0.6,0.3,1,0.7,1.4,1.2l-0.8,0.6c-0.3-0.4-0.6-0.7-1.1-0.9   c-0.4-0.2-0.9-0.3-1.4-0.3c-0.6,0-1.1,0.1-1.6,0.4c-0.5,0.3-0.9,0.7-1.1,1.2c-0.5,1.1-0.5,2.4,0,3.4c0.3,0.5,0.7,0.9,1.1,1.2   c0.5,0.3,1.1,0.4,1.6,0.4c0.5,0,1-0.1,1.4-0.3c0.4-0.2,0.8-0.5,1.1-0.9l0.8,0.6c-0.3,0.5-0.8,1-1.4,1.2c-0.6,0.3-1.3,0.4-1.9,0.4   C515.3,51,514.6,50.8,513.9,50.5z" id="svg_72"/>
	<path class="st0" d="M528.3,43.4c0.7,0.7,1,1.7,0.9,2.7v4.9h-1.1v-4.8c0.1-0.7-0.2-1.4-0.7-2c-0.5-0.5-1.2-0.7-1.9-0.7   c-0.8,0-1.6,0.3-2.2,0.8c-0.6,0.6-0.8,1.4-0.8,2.2v4.4h-1.1V39.1h1.1V44c0.3-0.5,0.8-0.9,1.3-1.1c0.6-0.3,1.2-0.4,1.9-0.4   C526.7,42.4,527.6,42.7,528.3,43.4z" id="svg_73"/>
	<path class="st0" d="M137.9,69c-0.9-1-1.3-2.3-1.2-3.6v-6.4h1.2v6.4c-0.1,1,0.2,2.1,0.9,2.9c1.5,1.3,3.6,1.3,5.1,0   c0.6-0.8,1-1.9,0.9-2.9v-6.4h1.2v6.4c0.1,1.3-0.3,2.6-1.2,3.6C142.8,70.6,139.9,70.6,137.9,69L137.9,69z" id="svg_74"/>
	<path class="st0" d="M156.1,62.6c0.7,0.7,1,1.7,0.9,2.7v4.9h-1.1v-4.8c0.1-0.7-0.2-1.4-0.7-2c-0.5-0.5-1.2-0.7-1.9-0.7   c-0.8,0-1.6,0.3-2.2,0.8c-0.6,0.6-0.8,1.4-0.8,2.2v4.4h-1.1v-8.4h1.1v1.6c0.3-0.5,0.8-0.9,1.3-1.2c0.6-0.3,1.2-0.4,1.9-0.4   C154.5,61.6,155.4,61.9,156.1,62.6z" id="svg_75"/>
	<path class="st0" d="M160.1,59.6c-0.2-0.2-0.2-0.4-0.2-0.6c0-0.2,0.1-0.4,0.2-0.6c0.2-0.2,0.4-0.2,0.6-0.2c0.2,0,0.4,0.1,0.6,0.2   c0.2,0.1,0.2,0.3,0.2,0.6c0,0.5-0.4,0.8-0.8,0.8C160.4,59.9,160.2,59.8,160.1,59.6z M160.1,61.7h1.1v8.4h-1.1V61.7z" id="svg_76"/>
	<path class="st0" d="M171.5,61.7l-3.7,8.4h-1.2l-3.7-8.4h1.2l3.2,7.2l3.2-7.2H171.5z" id="svg_77"/>
	<path class="st0" d="M180.1,66.3h-7c0,0.8,0.4,1.6,1,2.1c0.6,0.6,1.5,0.8,2.3,0.8c0.5,0,1-0.1,1.4-0.3c0.4-0.2,0.8-0.5,1.1-0.8   l0.6,0.7c-0.4,0.5-0.9,0.8-1.4,1c-0.6,0.2-1.2,0.4-1.8,0.4c-0.8,0-1.6-0.2-2.3-0.6c-0.7-0.4-1.2-0.9-1.6-1.5   c-0.4-0.7-0.6-1.4-0.6-2.2c0-0.8,0.2-1.5,0.5-2.2c0.3-0.6,0.9-1.2,1.5-1.5c0.6-0.4,1.4-0.6,2.1-0.5c0.7,0,1.5,0.2,2.1,0.5   c0.6,0.4,1.1,0.9,1.5,1.5c0.4,0.7,0.5,1.4,0.5,2.2L180.1,66.3z M174,63.4c-0.6,0.5-0.9,1.3-0.9,2h6c0-0.8-0.4-1.5-0.9-2   C177,62.4,175.2,62.4,174,63.4L174,63.4z" id="svg_78"/>
	<path class="st0" d="M184.8,62.1c0.6-0.3,1.3-0.5,2-0.4v1.1l-0.3,0c-0.8,0-1.5,0.3-2.1,0.8c-0.5,0.6-0.8,1.5-0.8,2.3v4.3h-1.1v-8.4   h1.1v1.6C183.8,62.8,184.2,62.4,184.8,62.1z" id="svg_79"/>
	<path class="st0" d="M189.1,69.9c-0.5-0.1-1-0.4-1.5-0.7l0.5-0.9c0.4,0.3,0.8,0.5,1.3,0.7c0.5,0.2,1.1,0.3,1.7,0.3   c0.6,0,1.2-0.1,1.7-0.4c0.4-0.2,0.6-0.6,0.6-1c0-0.3-0.1-0.5-0.3-0.7c-0.2-0.2-0.5-0.3-0.8-0.4c-0.4-0.1-0.8-0.2-1.2-0.3   c-0.6-0.1-1.1-0.2-1.6-0.4c-0.4-0.1-0.8-0.4-1.1-0.7c-0.3-0.4-0.5-0.8-0.4-1.3c0-0.7,0.3-1.3,0.9-1.7c0.7-0.5,1.6-0.7,2.4-0.7   c0.6,0,1.1,0.1,1.6,0.2c0.5,0.1,0.9,0.3,1.3,0.6l-0.5,0.9c-0.7-0.5-1.6-0.7-2.5-0.7c-0.6,0-1.1,0.1-1.6,0.4c-0.3,0.2-0.6,0.6-0.6,1   c0,0.3,0.1,0.6,0.3,0.8c0.2,0.2,0.5,0.3,0.8,0.4c0.4,0.1,0.8,0.2,1.3,0.3c0.5,0.1,1.1,0.2,1.6,0.4c0.4,0.1,0.8,0.3,1,0.7   c0.3,0.4,0.5,0.8,0.4,1.3c0,0.7-0.3,1.4-0.9,1.8c-0.8,0.5-1.7,0.7-2.6,0.6C190.4,70.2,189.8,70.1,189.1,69.9z" id="svg_80"/>
	<path class="st0" d="M196.6,59.6c-0.2-0.2-0.2-0.4-0.2-0.6c0-0.2,0.1-0.4,0.2-0.6c0.2-0.2,0.4-0.2,0.6-0.2c0.2,0,0.4,0.1,0.6,0.2   c0.2,0.1,0.2,0.3,0.2,0.6c0,0.5-0.4,0.8-0.8,0.8C197,59.9,196.8,59.8,196.6,59.6z M196.7,61.7h1.1v8.4h-1.1V61.7z" id="svg_81"/>
	<path class="st0" d="M205.4,69.6c-0.2,0.2-0.5,0.4-0.8,0.4c-0.3,0.1-0.6,0.2-1,0.2c-1.2,0.1-2.3-0.7-2.5-2c0-0.2,0-0.3,0-0.5v-5.1   h-1.5v-1h1.5v-1.8h1.1v1.8h2.6v1h-2.6v5c0,0.4,0.1,0.8,0.4,1.1c0.3,0.3,0.7,0.4,1.1,0.4c0.2,0,0.5,0,0.7-0.1   c0.2-0.1,0.4-0.2,0.6-0.3L205.4,69.6z" id="svg_82"/>
	<path class="st0" d="M214.4,61.7l-4.2,9.4c-0.2,0.7-0.7,1.2-1.2,1.7c-0.5,0.3-1,0.5-1.6,0.5c-0.4,0-0.8-0.1-1.1-0.2   c-0.3-0.1-0.7-0.3-0.9-0.6l0.5-0.8c0.4,0.4,1,0.6,1.5,0.6c0.4,0,0.7-0.1,1-0.3c0.3-0.3,0.6-0.7,0.8-1.1l0.4-0.8l-3.8-8.4h1.2   l3.2,7.2l3.2-7.2L214.4,61.7z" id="svg_83"/>
	<path class="st0" d="M221.4,69.7c-0.6-0.4-1.2-0.9-1.5-1.5c-0.7-1.4-0.7-3,0-4.4c0.4-0.6,0.9-1.2,1.5-1.5c1.4-0.7,3-0.7,4.4,0   c0.6,0.4,1.2,0.9,1.5,1.5c0.7,1.4,0.7,3,0,4.4c-0.4,0.6-0.9,1.2-1.5,1.5C224.4,70.4,222.8,70.4,221.4,69.7z M225.2,68.8   c0.5-0.3,0.9-0.7,1.1-1.2c0.5-1.1,0.5-2.3,0-3.4c-0.3-0.5-0.6-0.9-1.1-1.2c-1-0.5-2.2-0.5-3.2,0c-0.5,0.3-0.9,0.7-1.1,1.2   c-0.5,1.1-0.5,2.3,0,3.4c0.3,0.5,0.6,0.9,1.1,1.2C223,69.3,224.2,69.3,225.2,68.8z" id="svg_84"/>
	<path class="st0" d="M231.9,59.5c-0.3,0.3-0.4,0.8-0.4,1.2v1h2.6v1h-2.6v7.5h-1.1v-7.5h-1.5v-1h1.5v-1c0-0.7,0.2-1.3,0.7-1.8   c0.5-0.5,1.2-0.7,1.9-0.7c0.3,0,0.6,0,0.9,0.1c0.3,0.1,0.5,0.2,0.8,0.4l-0.4,0.8c-0.4-0.3-0.8-0.4-1.2-0.4   C232.6,59.1,232.2,59.3,231.9,59.5z" id="svg_85"/>
	<path class="st0" d="M239.5,69.8c-0.5-0.3-1-0.7-1.3-1.2l0.7-0.8c0.5,0.9,1.4,1.4,2.4,1.4c1.4,0,2.1-0.8,2.1-2.5V60h-4.1v-1h5.3   v7.8c0.1,1-0.2,1.9-0.8,2.6c-0.6,0.6-1.5,1-2.4,0.9C240.6,70.2,240,70.1,239.5,69.8z" id="svg_86"/>
	<path class="st0" d="M253.3,62.5c0.6,0.7,0.9,1.5,0.9,2.4v5.2h-1.1v-1.3c-0.3,0.4-0.7,0.8-1.1,1c-0.6,0.3-1.2,0.4-1.8,0.4   c-0.8,0-1.6-0.2-2.2-0.7c-1-0.8-1.1-2.3-0.3-3.3c0.1-0.1,0.2-0.2,0.2-0.2c0.7-0.5,1.6-0.7,2.5-0.7h2.7v-0.5c0-0.6-0.2-1.2-0.6-1.7   c-0.5-0.4-1.1-0.6-1.8-0.6c-0.5,0-1,0.1-1.5,0.3c-0.5,0.2-0.9,0.4-1.3,0.7l-0.5-0.8c0.5-0.4,1-0.7,1.5-0.8c0.6-0.2,1.2-0.3,1.9-0.3   C251.7,61.6,252.6,61.9,253.3,62.5z M252,68.9c0.5-0.3,0.8-0.8,1-1.3v-1.4h-2.6c-1.4,0-2.2,0.5-2.2,1.5c0,0.5,0.2,0.9,0.6,1.2   c0.5,0.3,1,0.5,1.6,0.4C250.9,69.3,251.5,69.2,252,68.9z" id="svg_87"/>
	<path class="st0" d="M264.6,66.3h-7c0,0.8,0.4,1.6,1,2.1c0.6,0.6,1.5,0.8,2.3,0.8c0.5,0,1-0.1,1.4-0.3c0.4-0.2,0.8-0.5,1.1-0.8   l0.6,0.7c-0.4,0.5-0.9,0.8-1.4,1c-0.6,0.2-1.2,0.4-1.8,0.4c-0.8,0-1.6-0.2-2.3-0.6c-0.7-0.4-1.2-0.9-1.6-1.5   c-0.4-0.7-0.6-1.4-0.6-2.2c0-0.8,0.2-1.5,0.5-2.2c0.3-0.6,0.9-1.2,1.5-1.5c0.6-0.4,1.4-0.6,2.1-0.5c0.7,0,1.5,0.2,2.1,0.5   c0.6,0.4,1.1,0.9,1.5,1.5c0.4,0.7,0.5,1.4,0.5,2.2L264.6,66.3z M258.5,63.4c-0.6,0.5-0.9,1.3-0.9,2h6c0-0.8-0.4-1.5-0.9-2   C261.4,62.4,259.7,62.4,258.5,63.4L258.5,63.4z M261.7,58.4h1.5l-2.6,2h-1.1L261.7,58.4z" id="svg_88"/>
	<path class="st0" d="M273.8,62.6c0.7,0.7,1,1.7,0.9,2.7v4.9h-1.1v-4.8c0.1-0.7-0.2-1.4-0.7-2c-0.5-0.5-1.2-0.7-1.9-0.7   c-0.8,0-1.6,0.3-2.2,0.8c-0.6,0.6-0.8,1.4-0.8,2.2v4.4H267v-8.4h1.1v1.6c0.3-0.5,0.8-0.9,1.3-1.2c0.6-0.3,1.2-0.4,1.9-0.4   C272.2,61.6,273.1,61.9,273.8,62.6z" id="svg_89"/>
</g><g id="svg_90" class="selected">
	<linearGradient id="SVGID_1_" gradientUnits="userSpaceOnUse" x1="114.28019714355469" y1="13.819999694824219" x2="114.2780990600586" y2="13.816300392150879">
		<stop offset="0" style="stop-color:#1F5F36"/>
		<stop offset="9.980536e-02" style="stop-color:#176639"/>
		<stop offset="0.3697" style="stop-color:#06733F"/>
		<stop offset="0.5718" style="stop-color:#007841"/>
		<stop offset="0.7361" style="stop-color:#08723E"/>
		<stop offset="0.9851" style="stop-color:#1D6237"/>
		<stop offset="1" style="stop-color:#1E6137"/>
	</linearGradient>
	<path class="st1" d="M114.3,13.8C114.3,13.8,114.3,13.8,114.3,13.8C114.3,13.8,114.3,13.8,114.3,13.8   C114.3,13.8,114.3,13.8,114.3,13.8z" id="svg_91"/>
	<linearGradient id="SVGID_2_" gradientUnits="userSpaceOnUse" x1="88.16529846191406" y1="72.38970184326172" x2="49.39149856567383" y2="5.231400012969971">
		<stop offset="0" style="stop-color:#1F5F36"/>
		<stop offset="9.980536e-02" style="stop-color:#176639"/>
		<stop offset="0.3697" style="stop-color:#06733F"/>
		<stop offset="0.5718" style="stop-color:#007841"/>
		<stop offset="0.7361" style="stop-color:#08723E"/>
		<stop offset="0.9851" style="stop-color:#1D6237"/>
		<stop offset="1" style="stop-color:#1E6137"/>
	</linearGradient>
	<path class="st2" d="M96,61.2c0,0-6.5,22.9-38.6,15.1c0,0,4.9-2.6,8.9-7.3c1.3-1.6,3.2-2.6,5.2-2.8c3.7-0.4,9.9-2.6,13.8-12.3   c3.1-7.6,6.6-16.9,9.2-24.1c1.5-4.1,5.5-12.6,7.1-16.2c-12-0.1-29.6-0.1-37,0.4c-6,0.4-12.8,3.6-18.1,9.3   c-5.4,5.8-9.8,30.7-9.8,30.7s6,0.5,19.4-0.8c13.4-1.3,15.5-17.4,15.5-17.4H59.6l2.7-12l24.7,0.5c-6,43.1-30.7,41.1-30.7,41.1H20.8   c0.1-0.6,7.7-37.5,15.7-50c8.4-13.2,31-13.3,31-13.3s23.9-0.8,31.8-0.4c6,0.3,10.1-0.5,13.7,3.9c2.4,3,0.7,7.9,0.7,7.9s0,0-0.1,0   c0,0,0.1,0,0.1,0.1" id="svg_92"/>
	<linearGradient id="SVGID_3_" gradientUnits="userSpaceOnUse" x1="42.93510055541992" y1="77.0969009399414" x2="13.746800422668457" y2="26.541400909423828">
		<stop offset="0" style="stop-color:#1F5F36"/>
		<stop offset="9.980536e-02" style="stop-color:#176639"/>
		<stop offset="0.3697" style="stop-color:#06733F"/>
		<stop offset="0.5718" style="stop-color:#007841"/>
		<stop offset="0.7361" style="stop-color:#08723E"/>
		<stop offset="0.9851" style="stop-color:#1D6237"/>
		<stop offset="1" style="stop-color:#1E6137"/>
	</linearGradient>
	<path class="st3" d="M61.9,65.3c-2.4,2.2-4.9,3.7-7.1,4.7c0,0-0.1,0-0.1,0.1c-4.9,2.2-8.7,1.9-8.7,1.9H10.5c0,0,4.6-23.4,10.8-39.5   c0,0,0,0,0,0c1.6-4.1,3.2-7.7,4.9-10.4c0.2-0.3,0.4-0.6,0.6-0.9c1.2-1.7,2.6-3.1,4.2-4.3c1.5-1.2,3.1-2.1,4.7-3   c-0.9,0.9-1.8,1.9-2.6,2.9c-0.2,0.3-0.4,0.6-0.6,0.9c-2,3.1-3.9,7.6-5.7,12.6c0,0,0,0,0,0c-5.7,16-10,37.4-10,37.4h35.5   c0,0,3.7,0.3,8.7-1.9c0,0,0.1,0,0.1-0.1C61.5,65.6,61.7,65.5,61.9,65.3z" id="svg_93"/>
	<linearGradient id="SVGID_4_" gradientUnits="userSpaceOnUse" x1="32.403099060058594" y1="84.41120147705078" x2="3.2149999141693115" y2="33.85599899291992">
		<stop offset="0" style="stop-color:#1F5F36"/>
		<stop offset="9.980536e-02" style="stop-color:#176639"/>
		<stop offset="0.3697" style="stop-color:#06733F"/>
		<stop offset="0.5718" style="stop-color:#007841"/>
		<stop offset="0.7361" style="stop-color:#08723E"/>
		<stop offset="0.9851" style="stop-color:#1D6237"/>
		<stop offset="1" style="stop-color:#1E6137"/>
	</linearGradient>
	<path class="st4" d="M51.4,72.7c-2.4,2.2-4.9,3.7-7.1,4.7c0,0-0.1,0-0.1,0.1c-4.9,2.2-8.7,1.9-8.7,1.9H0c0,0,5.2-26.3,11.9-42.4   c0,0,0,0,0,0c1.2-2.9,2.5-5.5,3.8-7.5c0.2-0.3,0.4-0.6,0.6-0.9c1.2-1.7,2.6-3.1,4.2-4.3c1.5-1.2,3.1-2.1,4.7-3   c-0.9,0.9-1.8,1.9-2.6,2.9c-0.2,0.3-0.4,0.6-0.6,0.9c-1.5,2.3-3,5.4-4.3,8.9c0,0,0,0,0,0c-6.4,16.2-11.4,41-11.4,41h35.5   c0,0,3.7,0.3,8.7-1.9c0,0,0.1,0,0.1-0.1C50.9,72.9,51.2,72.8,51.4,72.7z" id="svg_94"/>
</g></g></svg>